# File created by Blade
# Date/Time:  Tue Apr 07 20:22:14 2015
# Frame Rate: 120.000 fps
#------------------------------------------------------
:FULLY-SPECIFIED
:DEGREES
1319
root 0.584076 32.731892 -10.194999 12.203601 1.529079 -0.459236
Spine -9.124558 -4.452732 -0.851712
Head 7.485849 -4.930781 1.692684
LeftShoulder -17.492935 48.039235 6.773347
LeftArm 49.711560 2.671754 -81.620599
LeftForeArm 2.292819 -0.000000 33.350833
LeftHand 5.379182 -0.000000 -2.226939
LeftHandThumb1 -26.253704 0.000000 33.147579
RightShoulder -4.173941 -10.136118 -14.186939
RightArm 14.418856 -12.144627 85.039917
RightForeArm 2.786152 -0.000000 22.393549
RightHand 6.134435 -0.000000 5.120454
RightHandThumb1 -24.326973 -0.000000 -32.862282
LeftUpLeg -9.529398 -5.356276 1.947187
LeftLeg -0.536133 -0.000000 0.000000
LeftFoot -6.311740 8.238358 -15.070028
LeftToeBase -7.751086 -0.000000 0.000000
RightUpLeg -8.557103 -2.932140 2.210027
RightLeg -2.441015 -0.000000 0.000000
RightFoot -7.385060 -6.306998 4.925723
RightToeBase 3.763290 -0.000000 -0.000000
1320
root 0.575262 32.733010 -10.214380 12.274727 1.533236 -0.473781
Spine -9.112987 -4.417048 -0.885876
Head 7.841688 -5.060169 1.804299
LeftShoulder -17.574827 48.035631 6.740517
LeftArm 49.525874 2.095291 -82.261009
LeftForeArm 2.278056 -0.000000 33.891535
LeftHand 5.384880 -0.000000 -2.200293
LeftHandThumb1 -26.253704 0.000000 33.147579
RightShoulder -4.226003 -10.257420 -14.155102
RightArm 14.100431 -11.172301 85.421600
RightForeArm 2.551182 -0.000000 22.614170
RightHand 5.818249 -0.000000 5.344359
RightHandThumb1 -24.326973 -0.000000 -32.862282
LeftUpLeg -9.617457 -5.380336 1.989824
LeftLeg -0.579642 -0.000000 0.000000
LeftFoot -6.278182 8.292762 -15.103649
LeftToeBase -7.781809 -0.000000 0.000000
RightUpLeg -8.662305 -3.037951 2.265200
RightLeg -2.454381 -0.000000 0.000000
RightFoot -7.319272 -6.202203 4.903678
RightToeBase 3.710456 -0.000000 -0.000000
1321
root 0.562849 32.734163 -10.233586 12.353912 1.540746 -0.504970
Spine -9.114987 -4.362590 -0.921128
Head 8.247424 -5.251468 1.925723
LeftShoulder -17.611030 48.039545 6.770519
LeftArm 49.362631 1.523653 -82.929784
LeftForeArm 2.283446 -0.000000 34.408306
LeftHand 5.331762 0.000000 -2.147533
LeftHandThumb1 -26.253704 0.000000 33.147579
RightShoulder -4.291430 -10.358866 -14.114832
RightArm 13.757509 -10.273927 85.783671
RightForeArm 2.536937 -0.000000 22.856135
RightHand 5.820202 -0.000000 5.057530
RightHandThumb1 -24.326973 -0.000000 -32.862282
LeftUpLeg -9.677192 -5.501994 2.068005
LeftLeg -0.700637 -0.000000 0.000000
LeftFoot -6.243591 8.477839 -15.099581
LeftToeBase -7.706021 -0.000000 0.000000
RightUpLeg -8.771098 -3.149297 2.341838
RightLeg -2.475641 -0.000000 0.000000
RightFoot -7.250711 -6.070536 4.893737
RightToeBase 3.732380 -0.000000 -0.000000
1322
root 0.554320 32.735624 -10.252361 12.435566 1.563021 -0.522292
Spine -9.124805 -4.344501 -0.943060
Head 8.684209 -5.408315 2.006502
LeftShoulder -17.635706 48.006719 6.792788
LeftArm 49.147069 0.960692 -83.609006
LeftForeArm 2.229182 -0.000000 34.930360
LeftHand 5.315598 -0.000000 -2.055476
LeftHandThumb1 -26.253704 0.000000 33.147579
RightShoulder -4.325812 -10.481008 -14.109326
RightArm 13.443849 -9.331542 86.157547
RightForeArm 2.390581 -0.000000 23.078172
RightHand 5.682955 -0.000000 4.904482
RightHandThumb1 -24.326973 -0.000000 -32.862282
LeftUpLeg -9.761229 -5.523211 2.115051
LeftLeg -0.778386 -0.000000 0.000000
LeftFoot -6.179231 8.524143 -15.089177
LeftToeBase -7.724304 -0.000000 0.000000
RightUpLeg -8.862665 -3.219032 2.398855
RightLeg -2.535606 -0.000000 0.000000
RightFoot -7.164765 -6.034904 4.927551
RightToeBase 3.699090 -0.000000 -0.000000
1323
root 0.551211 32.736819 -10.269827 12.515798 1.592625 -0.499549
Spine -9.134426 -4.336214 -0.992746
Head 9.151968 -5.602111 2.076768
LeftShoulder -17.680714 48.031881 6.784819
LeftArm 49.020242 0.431573 -84.255921
LeftForeArm 2.101301 -0.000000 35.404569
LeftHand 5.352253 -0.000000 -1.985820
LeftHandThumb1 -26.253704 0.000000 33.147579
RightShoulder -4.372501 -10.570382 -14.113618
RightArm 13.125588 -8.467442 86.508695
RightForeArm 2.455505 0.000000 23.299348
RightHand 5.629529 -0.000000 4.602912
RightHandThumb1 -24.326973 -0.000000 -32.862282
LeftUpLeg -9.859560 -5.528674 2.111532
LeftLeg -0.814723 -0.000000 0.000000
LeftFoot -6.111570 8.512318 -15.097179
LeftToeBase -7.698980 -0.000000 0.000000
RightUpLeg -8.930025 -3.077039 2.357229
RightLeg -2.610216 -0.000000 0.000000
RightFoot -7.121235 -6.174476 4.924449
RightToeBase 3.731234 -0.000000 -0.000000
1324
root 0.545183 32.738732 -10.289654 12.615641 1.631339 -0.495576
Spine -9.167945 -4.344748 -1.011063
Head 9.663734 -5.735822 2.098393
LeftShoulder -17.608144 47.877260 6.889082
LeftArm 48.661632 -0.089034 -84.892819
LeftForeArm 1.890738 0.000000 35.927207
LeftHand 5.303599 -0.000000 -1.854405
LeftHandThumb1 -26.253704 0.000000 33.147579
RightShoulder -4.422370 -10.686369 -14.120165
RightArm 12.866725 -7.761070 86.780540
RightForeArm 2.650086 -0.000000 23.525884
RightHand 5.770285 -0.000000 4.801599
RightHandThumb1 -24.326973 -0.000000 -32.862282
LeftUpLeg -9.985882 -5.526763 2.134248
LeftLeg -0.847909 -0.000000 0.000000
LeftFoot -6.044150 8.489763 -15.116124
LeftToeBase -7.683906 -0.000000 0.000000
RightUpLeg -9.035359 -3.058978 2.364238
RightLeg -2.669509 -0.000000 0.000000
RightFoot -7.057140 -6.201209 4.935138
RightToeBase 3.743075 -0.000000 -0.000000
1325
root 0.537979 32.740603 -10.308004 12.715081 1.679156 -0.501842
Spine -9.196206 -4.348422 -1.030603
Head 10.200095 -5.910918 2.161939
LeftShoulder -17.684939 48.026876 6.828365
LeftArm 48.694699 -0.562134 -85.471718
LeftForeArm 1.636838 -0.000000 36.366733
LeftHand 5.410854 -0.000000 -1.682027
LeftHandThumb1 -26.253704 0.000000 33.147579
RightShoulder -4.490511 -10.806186 -14.113563
RightArm 12.645182 -7.064096 87.060476
RightForeArm 2.930595 -0.000000 23.682267
RightHand 5.840961 -0.000000 4.565919
RightHandThumb1 -24.326973 -0.000000 -32.862282
LeftUpLeg -10.102104 -5.530622 2.173830
LeftLeg -0.895722 -0.000000 0.000000
LeftFoot -5.967198 8.448966 -15.145995
LeftToeBase -7.672788 -0.000000 0.000000
RightUpLeg -9.136371 -3.065431 2.391334
RightLeg -2.732726 -0.000000 0.000000
RightFoot -6.985569 -6.222228 4.972970
RightToeBase 3.743685 -0.000000 -0.000000
1326
root 0.531562 32.742453 -10.328276 12.819524 1.722533 -0.515814
Spine -9.225364 -4.375579 -1.030367
Head 10.750650 -6.024196 2.212831
LeftShoulder -17.683986 48.015111 6.850143
LeftArm 48.515783 -1.046421 -86.062979
LeftForeArm 1.431214 -0.000000 36.868152
LeftHand 5.390881 -0.000000 -1.568562
LeftHandThumb1 -26.253704 0.000000 33.147579
RightShoulder -4.507740 -10.886090 -14.132124
RightArm 12.369923 -6.271389 87.353100
RightForeArm 2.778672 0.000000 23.901665
RightHand 5.823604 0.000000 4.224928
RightHandThumb1 -24.326973 -0.000000 -32.862282
LeftUpLeg -10.222125 -5.505576 2.214300
LeftLeg -0.953742 -0.000000 0.000000
LeftFoot -5.887854 8.398763 -15.164385
LeftToeBase -7.680555 -0.000000 0.000000
RightUpLeg -9.250302 -3.082553 2.425494
RightLeg -2.789106 -0.000000 0.000000
RightFoot -6.910554 -6.219495 4.983709
RightToeBase 3.743384 -0.000000 -0.000000
1327
root 0.525972 32.743406 -10.346941 12.896778 1.767505 -0.531191
Spine -9.223333 -4.393728 -1.021809
Head 11.320880 -6.143491 2.236122
LeftShoulder -17.656788 48.001397 6.893058
LeftArm 48.375117 -1.500992 -86.642658
LeftForeArm 1.239274 -0.000000 37.294899
LeftHand 5.457010 -0.000000 -1.419537
LeftHandThumb1 -26.253704 0.000000 33.147579
RightShoulder -4.518596 -10.966467 -14.144694
RightArm 12.119330 -5.601667 87.619618
RightForeArm 3.355322 -0.000000 24.159121
RightHand 5.812314 -0.000000 4.267219
RightHandThumb1 -24.326973 -0.000000 -32.862282
LeftUpLeg -10.304964 -5.549133 2.264607
LeftLeg -1.028247 -0.000000 0.000000
LeftFoot -5.829264 8.407458 -15.214302
LeftToeBase -7.625148 -0.000000 0.000000
RightUpLeg -9.324265 -3.019660 2.442887
RightLeg -2.860526 -0.000000 0.000000
RightFoot -6.852051 -6.304917 5.021972
RightToeBase 3.791134 -0.000000 -0.000000
1328
root 0.521651 32.745566 -10.368204 13.004930 1.800825 -0.531866
Spine -9.252056 -4.410112 -1.032247
Head 11.922783 -6.257766 2.265905
LeftShoulder -17.570821 47.969089 6.966982
LeftArm 48.136561 -1.981239 -87.225263
LeftForeArm 1.181108 -0.000000 37.874861
LeftHand 5.347226 -0.000000 -1.296291
LeftHandThumb1 -26.253704 0.000000 33.147579
RightShoulder -4.524247 -11.024980 -14.154642
RightArm 11.852066 -4.918630 87.849737
RightForeArm 3.453476 -0.000000 24.432456
RightHand 5.697865 0.000000 4.311633
RightHandThumb1 -24.326973 -0.000000 -32.862282
LeftUpLeg -10.418292 -5.548719 2.291278
LeftLeg -1.112409 -0.000000 0.000000
LeftFoot -5.721527 8.402995 -15.223253
LeftToeBase -7.668237 -0.000000 0.000000
RightUpLeg -9.446512 -2.972716 2.446378
RightLeg -2.905203 -0.000000 0.000000
RightFoot -6.789738 -6.339745 5.085370
RightToeBase 3.741719 -0.000000 -0.000000
